HIERARCHY
ROOT Hips
{
	OFFSET 0.000000 0.000000 0.000000
	CHANNELS 6 Xposition Yposition Zposition Zrotation Yrotation Xrotation
	JOINT Spine
	{
		OFFSET 0.000000 -0.744707 -0.000000
		CHANNELS 6 Xposition Yposition Zposition Zrotation Yrotation Xrotation
		JOINT Spine1
		{
			OFFSET 0.000000 -2.032240 -0.000000
			CHANNELS 6 Xposition Yposition Zposition Zrotation Yrotation Xrotation
			JOINT Neck
			{
				OFFSET 0.000000 -2.213880 -0.000000
				CHANNELS 6 Xposition Yposition Zposition Zrotation Yrotation Xrotation
				JOINT Head
				{
					OFFSET 0.000000 -1.407680 -0.181636
					CHANNELS 6 Xposition Yposition Zposition Zrotation Yrotation Xrotation
					End Site
					{
						OFFSET 0.000000 -1.816356 -0.000000
					}
				}
			}
			JOINT LeftShoulder
			{
				OFFSET 0.365767 -1.787590 0.048012
				CHANNELS 6 Xposition Yposition Zposition Zrotation Yrotation Xrotation
				JOINT LeftArm
				{
					OFFSET 1.305160 0.000000 0.000000
					CHANNELS 6 Xposition Yposition Zposition Zrotation Yrotation Xrotation
					JOINT LeftForeArm
					{
						OFFSET 2.559210 0.000000 0.000000
						CHANNELS 6 Xposition Yposition Zposition Zrotation Yrotation Xrotation
						JOINT LeftHand
						{
							OFFSET 2.378450 0.000000 0.000000
							CHANNELS 6 Xposition Yposition Zposition Zrotation Yrotation Xrotation
							End Site
							{
								OFFSET 1.362267 0.000000 0.000000
							}
						}
					}
				}
			}
			JOINT RightShoulder
			{
				OFFSET -0.360721 -1.787590 0.048012
				CHANNELS 6 Xposition Yposition Zposition Zrotation Yrotation Xrotation
				JOINT RightArm
				{
					OFFSET -1.305160 0.000000 0.000000
					CHANNELS 6 Xposition Yposition Zposition Zrotation Yrotation Xrotation
					JOINT RightForeArm
					{
						OFFSET -2.559210 0.000000 0.000000
						CHANNELS 6 Xposition Yposition Zposition Zrotation Yrotation Xrotation
						JOINT RightHand
						{
							OFFSET -2.378450 0.000000 0.000000
							CHANNELS 6 Xposition Yposition Zposition Zrotation Yrotation Xrotation
							End Site
							{
								OFFSET -1.362267 0.000000 0.000000
							}
						}
					}
				}
			}
		}
	}
	JOINT LeftUpLeg
	{
		OFFSET 0.908180 0.000000 0.000000
		CHANNELS 6 Xposition Yposition Zposition Zrotation Yrotation Xrotation
		JOINT LeftLeg
		{
			OFFSET 0.000000 3.819490 0.000002
			CHANNELS 6 Xposition Yposition Zposition Zrotation Yrotation Xrotation
			JOINT LeftFoot
			{
				OFFSET 0.000000 4.004300 0.000002
				CHANNELS 6 Xposition Yposition Zposition Zrotation Yrotation Xrotation
				JOINT LeftToeBase
				{
					OFFSET 0.000000 0.590317 -1.362270
					CHANNELS 6 Xposition Yposition Zposition Zrotation Yrotation Xrotation
					End Site
					{
						OFFSET 0.000000 0.000000 -0.363271
					}
				}
			}
		}
	}
	JOINT RightUpLeg
	{
		OFFSET -0.908180 0.000000 0.000000
		CHANNELS 6 Xposition Yposition Zposition Zrotation Yrotation Xrotation
		JOINT RightLeg
		{
			OFFSET 0.000000 3.819490 0.000002
			CHANNELS 6 Xposition Yposition Zposition Zrotation Yrotation Xrotation
			JOINT RightFoot
			{
				OFFSET 0.000000 4.004300 0.000002
				CHANNELS 6 Xposition Yposition Zposition Zrotation Yrotation Xrotation
				JOINT RightToeBase
				{
					OFFSET 0.000000 0.590317 -1.362270
					CHANNELS 6 Xposition Yposition Zposition Zrotation Yrotation Xrotation
					End Site
					{
						OFFSET 0.000000 0.000000 -0.363271
					}
				}
			}
		}
	}
}
MOTION
Frames: 4
Frame Time: 0.016667
-1.660254 -7.952991 -1.982769 0.654486 2.489318 7.416402 -0.000000 -0.744707 -0.000000 5.467864 -9.402373 -22.481667 0.000000 -2.032239 -0.000000 -10.446180 -1.503530 21.529784 0.000000 -2.213881 -0.000000 -7.024027 2.285289 0.190382 0.000000 -1.407681 -0.181636 1.417426 1.157387 7.399731 0.365767 -1.787591 0.048012 -13.378900 -1.384521 -2.752289 1.305160 0.000001 -0.000000 49.027067 6.411383 11.922548 2.559210 0.000002 -0.000000 -64.354507 55.273835 -69.159729 2.378450 0.000000 -0.000001 -9.111329 -25.441772 -30.629891 -0.360721 -1.787590 0.048012 8.030541 -7.192584 -5.515292 -1.305160 0.000001 -0.000000 -54.208254 -35.434926 18.070135 -2.559209 -0.000000 -0.000001 120.947692 -37.171635 -79.497562 -2.378449 0.000001 -0.000000 55.326144 15.698934 -9.822539 0.908180 0.000001 -0.000000 -0.909695 -2.039087 -9.019460 -0.000000 3.819490 0.000001 -3.232609 -4.421712 10.717759 0.000000 4.004299 0.000001 -1.796687 -22.151719 -4.067722 0.000000 0.590316 -1.362270 -0.000001 0.000003 0.000003 -0.908180 0.000001 -0.000000 18.198110 -0.684418 -19.975655 -0.000000 3.819489 0.000001 -10.721602 -12.384425 22.528303 -0.000000 4.004299 0.000000 -4.742652 47.840445 -2.113932 -0.000001 0.590318 -1.362269 0.000003 0.000007 0.000004 
-1.642591 -7.954000 -1.976745 0.675591 2.640520 7.398016 -0.000000 -0.744707 0.000000 5.321096 -9.294629 -22.403371 0.000000 -2.032238 -0.000001 -10.247314 -1.503337 21.437409 -0.000000 -2.213881 -0.000000 -7.204325 2.071745 0.433144 0.000000 -1.407682 -0.181636 1.637629 0.850675 7.212545 0.365767 -1.787592 0.048012 -13.310785 -1.106258 -3.041120 1.305161 0.000001 -0.000000 48.699952 7.287222 9.840022 2.559210 0.000002 -0.000000 -64.686980 54.386034 -69.066347 2.378450 0.000001 -0.000001 -11.937081 -26.739692 -30.175229 -0.360721 -1.787591 0.048012 7.956363 -7.104244 -5.326002 -1.305161 0.000002 -0.000000 -54.832287 -35.340516 18.208478 -2.559209 0.000001 0.000000 121.023726 -37.605396 -79.609967 -2.378449 0.000000 0.000001 55.527017 15.408917 -9.346894 0.908180 0.000000 0.000000 -0.810637 -2.064218 -9.102795 0.000000 3.819491 0.000001 -3.267030 -4.736827 10.870721 0.000000 4.004299 0.000001 -1.837944 -21.950840 -4.111814 0.000000 0.590316 -1.362270 -0.000000 -0.000002 0.000001 -0.908180 0.000001 0.000000 18.168103 -1.051581 -20.213856 0.000000 3.819490 0.000002 -10.883251 -11.781610 22.906694 -0.000000 4.004300 0.000001 -4.852616 47.898156 -3.083382 -0.000001 0.590316 -1.362270 0.000001 0.000005 0.000004 
-1.626782 -7.955176 -1.970095 0.708231 2.766179 7.347424 0.000000 -0.744706 -0.000000 5.174841 -9.136314 -22.280198 -0.000000 -2.032239 0.000000 -10.079946 -1.478632 21.353149 0.000000 -2.213879 -0.000000 -7.329176 1.825180 0.686082 0.000000 -1.407678 -0.181636 1.817913 0.525037 6.995744 0.365767 -1.787588 0.048012 -13.266953 -0.816379 -3.429884 1.305160 0.000000 0.000000 48.327570 7.993690 8.109110 2.559211 0.000000 -0.000000 -65.171172 53.350362 -69.114042 2.378449 -0.000000 -0.000000 -14.774220 -28.039815 -29.799658 -0.360721 -1.787591 0.048012 7.918280 -7.063340 -5.194715 -1.305160 -0.000000 -0.000000 -55.461843 -35.146941 18.661994 -2.559210 -0.000001 -0.000001 120.973196 -37.847875 -79.398613 -2.378452 0.000002 -0.000001 55.823720 15.210024 -8.892590 0.908180 0.000001 -0.000000 -0.860412 -1.953375 -9.185680 -0.000000 3.819491 0.000002 -3.046252 -4.743263 11.092078 0.000000 4.004300 0.000001 -1.955016 -22.170564 -4.179910 0.000000 0.590316 -1.362270 0.000000 0.000005 0.000000 -0.908180 0.000000 -0.000000 18.109434 -1.466620 -20.389957 0.000000 3.819489 0.000002 -10.963747 -11.082456 23.219781 0.000000 4.004301 0.000001 -5.164525 47.817461 -3.976255 -0.000000 0.590316 -1.362271 0.000000 -0.000001 0.000004 
-1.611688 -7.956424 -1.964397 0.743124 2.876420 7.305692 -0.000000 -0.744706 -0.000000 5.010614 -8.947212 -22.173808 -0.000000 -2.032242 -0.000001 -9.894484 -1.446280 21.265722 -0.000000 -2.213880 -0.000001 -7.487457 1.565298 0.960051 0.000000 -1.407683 -0.181636 2.080660 0.163950 6.783148 0.365767 -1.787590 0.048012 -13.219292 -0.576855 -3.716415 1.305160 0.000001 -0.000000 47.768048 8.774113 6.314928 2.559210 0.000000 0.000000 -65.342487 52.528765 -69.013830 2.378449 -0.000001 0.000000 -17.778166 -29.356249 -29.202925 -0.360721 -1.787591 0.048012 7.868842 -6.996053 -4.975816 -1.305160 0.000002 -0.000000 -56.043386 -35.038696 19.071317 -2.559209 -0.000000 -0.000001 120.861768 -38.181516 -79.281899 -2.378449 0.000001 -0.000000 56.154206 14.900684 -8.520779 0.908180 0.000001 0.000000 -0.874010 -1.971601 -9.280151 -0.000000 3.819491 0.000002 -2.881707 -4.727648 11.308745 -0.000000 4.004300 0.000001 -2.028756 -22.292581 -4.241889 -0.000000 0.590316 -1.362270 -0.000001 0.000003 0.000002 -0.908180 0.000000 0.000000 18.043475 -1.873167 -20.519256 0.000000 3.819489 0.000002 -11.113424 -10.817567 23.508495 -0.000000 4.004301 0.000001 -5.229106 47.778351 -4.574790 -0.000000 0.590316 -1.362271 0.000001 0.000004 0.000005 
